<svg width="160" height="160" viewBox="0 0 160 160" fill="none" xmlns="http://www.w3.org/2000/svg">
<path d="M160 80C160 124.183 124.183 160 80 160C35.8172 160 0 124.183 0 80C0 35.8172 35.8172 0 80 0C124.183 0 160 35.8172 160 80ZM10.4 80C10.4 118.439 41.561 149.6 80 149.6C118.439 149.6 149.6 118.439 149.6 80C149.6 41.561 118.439 10.4 80 10.4C41.561 10.4 10.4 41.561 10.4 80Z" fill="#F5F5F5"/>
<path d="M80 5.2C80 2.32812 82.3307 -0.0176055 85.1965 0.168925C98.134 1.011 110.701 4.98755 121.8 11.7888C134.38 19.4976 144.582 30.535 151.281 43.6808C157.979 56.8265 160.911 71.5684 159.753 86.2767C158.596 100.985 153.393 115.087 144.721 127.023C136.049 138.959 124.245 148.264 110.615 153.91C96.984 159.556 82.0574 161.323 67.4853 159.015C52.9131 156.707 39.263 150.414 28.0442 140.832C18.1461 132.379 10.4807 121.655 5.68195 109.611C4.61896 106.943 6.12966 104.002 8.86098 103.114C11.5923 102.227 14.5077 103.731 15.5966 106.389C19.7855 116.612 26.3592 125.716 34.7984 132.924C44.5588 141.26 56.4344 146.735 69.1122 148.743C81.7899 150.751 94.776 149.214 106.635 144.302C118.493 139.39 128.763 131.294 136.308 120.91C143.852 110.525 148.378 98.257 149.385 85.4608C150.393 72.6645 147.841 59.839 142.014 48.4023C136.187 36.9655 127.31 27.3629 116.366 20.6562C106.903 14.8574 96.2131 11.4188 85.1953 10.5942C82.3315 10.3798 80 8.07188 80 5.2Z" fill="#52b788"/>
</svg>
