
<!DOCTYPE svg PUBLIC "-//W3C//DTD SVG 1.1//EN" "http://www.w3.org/Graphics/SVG/1.1/DTD/svg11.dtd">

<!-- Uploaded to: SVG Repo, www.svgrepo.com, Transformed by: SVG Repo Mixer Tools -->
<svg width="119px" height="119px" viewBox="0 0 48.00 48.00" id="b" xmlns="http://www.w3.org/2000/svg" fill="#52b788" stroke="#52b788" stroke-width="2.016">

<g id="SVGRepo_bgCarrier" stroke-width="0"/>

<g id="SVGRepo_tracerCarrier" stroke-linecap="round" stroke-linejoin="round" stroke="#CCCCCC" stroke-width="2.592">

<defs>

<style>.c{fill:none;stroke:#52b788;stroke-linecap:round;stroke-linejoin:round;}</style>

</defs>

<path class="c" d="m9.9593,20.0119c1.7384-7.4648,8.4874-12.9868,16.5658-12.9868,9.4077,0,16.9749,7.5671,16.9749,16.9749s-7.5671,16.9749-16.9749,16.9749"/>

<path class="c" d="m10.1638,19.2961l-5.6242,20.1449c-.2045.8181.409,1.5339,1.2271,1.5339h20.7584"/>

<polyline class="c" points="31.5358 28.6016 19.3671 28.6016 7.6074 28.6016"/>

<polyline class="c" points="31.3313 8.0477 25.4003 18.2735 19.3671 28.6016"/>

<line class="c" x1="36.751" y1="37.4981" x2="25.5026" y2="18.1713"/>

</g>

<g id="SVGRepo_iconCarrier">

<defs>

<style>.c{fill:none;stroke:#52b788;stroke-linecap:round;stroke-linejoin:round;}</style>

</defs>

<path class="c" d="m9.9593,20.0119c1.7384-7.4648,8.4874-12.9868,16.5658-12.9868,9.4077,0,16.9749,7.5671,16.9749,16.9749s-7.5671,16.9749-16.9749,16.9749"/>

<path class="c" d="m10.1638,19.2961l-5.6242,20.1449c-.2045.8181.409,1.5339,1.2271,1.5339h20.7584"/>

<polyline class="c" points="31.5358 28.6016 19.3671 28.6016 7.6074 28.6016"/>

<polyline class="c" points="31.3313 8.0477 25.4003 18.2735 19.3671 28.6016"/>

<line class="c" x1="36.751" y1="37.4981" x2="25.5026" y2="18.1713"/>

</g>

</svg>